<?xml version="1.0" standalone="no"?>
<!DOCTYPE svg PUBLIC "-//W3C//DTD SVG 20010904//EN"
 "http://www.w3.org/TR/2001/REC-SVG-20010904/DTD/svg10.dtd">
<svg version="1.0" xmlns="http://www.w3.org/2000/svg"
 width="2048.000000pt" height="2048.000000pt" viewBox="0 0 2048.000000 2048.000000"
 preserveAspectRatio="xMidYMid meet">
<metadata>
Created by potrace 1.11, written by Peter Selinger 2001-2013
</metadata>
<g transform="translate(0.000000,2048.000000) scale(0.100000,-0.100000)"
fill="#000000" stroke="none">
<path d="M6431 15238 c-60 -31 -83 -65 -89 -132 -9 -113 68 -182 193 -174 98
6 151 54 161 143 4 40 1 59 -18 95 -29 55 -71 80 -146 87 -46 4 -65 0 -101
-19z"/>
<path d="M4406 15178 c4 -13 106 -349 226 -748 120 -399 230 -762 244 -808
l25 -82 162 2 161 3 242 800 c134 440 246 812 249 828 l7 27 -174 -2 -173 -3
-155 -592 c-85 -326 -158 -589 -161 -585 -6 6 -309 1162 -309 1177 0 3 -79 5
-176 5 l-175 0 7 -22z"/>
<path d="M7920 14789 c-80 -13 -173 -63 -236 -125 -29 -30 -55 -54 -57 -54 -3
0 -8 36 -11 80 l-7 80 -145 0 -144 0 0 -615 0 -615 160 0 160 0 0 442 0 441
25 33 c13 17 48 44 77 58 43 21 66 26 130 26 87 0 137 -16 181 -58 53 -51 57
-86 57 -534 l0 -408 155 0 155 0 0 428 c0 460 -4 507 -50 608 -55 121 -155
194 -295 214 -79 11 -80 11 -155 -1z"/>
<path d="M9175 14790 c-80 -11 -162 -43 -235 -91 -101 -68 -169 -162 -210
-294 -32 -100 -40 -321 -15 -431 63 -286 268 -453 556 -454 93 0 210 29 289
71 119 63 219 202 228 317 l4 52 -146 0 c-145 0 -146 0 -146 -22 0 -40 -43
-101 -92 -131 -62 -39 -165 -48 -233 -23 -60 23 -120 93 -143 165 -25 83 -24
334 2 414 22 66 84 143 133 163 42 18 154 18 196 1 74 -32 136 -113 137 -179
l0 -28 146 0 147 0 -5 70 c-10 139 -109 280 -241 344 -101 49 -254 72 -372 56z"/>
<path d="M10600 14791 c-259 -36 -458 -239 -499 -508 -50 -331 74 -589 342
-707 231 -103 548 -56 722 106 l59 55 -78 86 -79 87 -40 -36 c-152 -138 -414
-136 -536 3 -37 41 -81 133 -81 168 0 13 58 15 422 15 l421 0 -7 128 c-7 145
-25 230 -68 319 -58 124 -188 232 -319 266 -72 19 -190 27 -259 18z m208 -277
c29 -14 64 -41 78 -60 28 -36 54 -111 54 -156 l0 -28 -260 0 c-297 0 -278 -8
-240 93 25 67 77 129 132 156 64 31 167 29 236 -5z"/>
<path d="M12120 14789 c-80 -13 -173 -63 -236 -125 -29 -30 -55 -54 -57 -54
-3 0 -8 36 -11 80 l-7 80 -145 0 -144 0 0 -615 0 -615 160 0 160 0 0 442 0
441 25 33 c13 17 48 44 77 58 43 21 66 26 130 26 87 0 137 -16 181 -58 53 -51
57 -86 57 -534 l0 -408 155 0 155 0 0 428 c0 460 -4 507 -50 608 -55 121 -155
194 -295 214 -79 11 -80 11 -155 -1z"/>
<path d="M14770 14791 c-232 -32 -403 -190 -467 -431 -24 -90 -24 -320 0 -410
72 -271 279 -429 563 -430 95 0 213 27 287 67 131 71 238 228 273 402 20 102
15 293 -10 385 -56 202 -195 346 -386 400 -69 19 -188 27 -260 17z m196 -270
c59 -27 111 -93 137 -176 31 -99 31 -280 0 -380 -40 -127 -123 -195 -239 -195
-121 0 -211 75 -251 209 -24 79 -24 275 0 355 30 97 79 161 147 190 49 21 155
20 206 -3z"/>
<path d="M6010 14645 l0 -125 175 0 175 0 0 -360 0 -360 -175 0 -175 0 0 -130
0 -130 500 0 500 0 0 130 0 130 -165 0 -165 0 0 485 0 485 -335 0 -335 0 0
-125z"/>
<path d="M12910 14645 l0 -125 339 -2 339 -3 -344 -388 -344 -388 0 -100 0
-99 575 0 575 0 0 125 0 125 -360 0 c-198 0 -360 2 -360 5 0 3 158 183 350
400 l350 396 0 89 0 90 -560 0 -560 0 0 -125z"/>
<path d="M5980 11125 l0 -125 160 0 160 0 0 -575 0 -575 -160 0 -160 0 0 -130
0 -130 480 0 480 0 0 130 0 130 -160 0 -160 0 0 575 0 575 160 0 160 0 0 125
0 125 -480 0 -480 0 0 -125z"/>
<path d="M7920 10839 c-80 -13 -173 -63 -236 -125 -29 -30 -55 -54 -57 -54 -3
0 -8 36 -11 80 l-7 80 -145 0 -144 0 0 -615 0 -615 160 0 160 0 0 442 0 441
25 33 c13 17 48 44 77 58 43 21 66 26 130 26 87 0 137 -16 181 -58 53 -51 57
-86 57 -534 l0 -408 155 0 155 0 0 428 c0 460 -4 507 -50 608 -55 121 -155
194 -295 214 -79 11 -80 11 -155 -1z"/>
<path d="M9107 10839 c-182 -27 -329 -177 -389 -396 -17 -64 -21 -106 -21
-233 0 -127 4 -169 21 -233 45 -163 142 -296 260 -356 155 -78 343 -63 472 39
21 16 41 30 45 30 10 0 -3 -124 -18 -175 -17 -59 -91 -130 -158 -149 -67 -20
-151 -20 -219 0 -58 17 -143 67 -174 103 l-19 21 -68 -92 c-38 -51 -69 -96
-69 -99 0 -16 94 -91 150 -119 94 -47 196 -70 315 -70 239 0 421 93 509 259
65 124 66 135 66 829 l0 622 -145 0 -145 0 0 -42 c0 -60 -11 -74 -36 -47 -78
87 -229 131 -377 108z m278 -268 c22 -10 57 -37 78 -59 l37 -42 0 -259 0 -258
-29 -40 c-52 -72 -163 -106 -263 -83 -66 16 -144 90 -172 165 -27 73 -34 288
-12 375 23 90 67 155 130 191 43 24 62 29 121 29 46 0 84 -7 110 -19z"/>
<path d="M10930 10839 c-87 -15 -194 -73 -266 -144 -34 -35 -65 -61 -68 -57
-3 3 -6 28 -6 56 0 28 -3 68 -6 89 l-7 37 -143 0 -144 0 0 -615 0 -615 155 0
155 0 0 373 0 373 29 45 c69 106 138 141 295 147 60 2 142 -1 183 -8 41 -6 77
-9 80 -6 3 3 14 59 24 123 10 65 20 132 23 149 4 31 4 32 -52 42 -89 17 -192
22 -252 11z"/>
<path d="M11945 10841 c-187 -24 -323 -108 -384 -234 -16 -34 -33 -81 -36
-104 l-7 -43 156 0 156 0 6 28 c13 52 35 82 76 103 36 18 54 21 129 17 74 -3
93 -8 129 -32 54 -36 79 -91 80 -173 l0 -63 -147 0 c-82 0 -177 -5 -212 -11
-260 -42 -394 -176 -393 -393 0 -142 67 -248 195 -311 171 -84 363 -70 510 35
62 45 67 47 67 24 0 -9 5 -34 12 -55 l11 -39 160 0 159 0 -5 23 c-3 12 -14 47
-23 77 -14 46 -18 120 -23 450 l-6 395 -33 67 c-55 113 -161 190 -304 222 -83
19 -199 26 -273 17z m305 -794 l0 -113 -37 -36 c-80 -78 -225 -110 -316 -70
-60 26 -87 70 -87 137 0 66 26 113 82 148 56 35 107 45 246 46 l112 1 0 -113z"/>
<path d="M13370 10841 c-232 -32 -403 -190 -467 -431 -24 -90 -24 -320 0 -410
72 -271 279 -429 563 -430 95 0 213 27 287 67 131 71 238 228 273 402 20 102
15 293 -10 385 -56 202 -195 346 -386 400 -69 19 -188 27 -260 17z m196 -270
c59 -27 111 -93 137 -176 31 -99 31 -280 0 -380 -40 -127 -123 -195 -239 -195
-121 0 -211 75 -251 209 -24 79 -24 275 0 355 30 97 79 161 147 190 49 21 155
20 206 -3z"/>
<path d="M8798 6688 l-3 -613 -23 -50 c-56 -121 -163 -173 -298 -145 -100 21
-164 104 -164 213 l0 37 -160 0 -160 0 0 -32 c0 -61 29 -168 61 -228 81 -152
230 -233 454 -246 287 -17 515 132 589 385 14 47 16 136 16 673 l0 618 -155 0
-154 0 -3 -612z"/>
<path d="M10230 6889 c-87 -15 -194 -73 -266 -144 -34 -35 -65 -61 -68 -57 -3
3 -6 28 -6 56 0 28 -3 68 -6 89 l-7 37 -143 0 -144 0 0 -615 0 -615 155 0 155
0 0 373 0 373 29 45 c69 106 138 141 295 147 60 2 142 -1 183 -8 41 -6 77 -9
80 -6 3 3 14 59 24 123 10 65 20 132 23 149 4 31 4 32 -52 42 -89 17 -192 22
-252 11z"/>
<path d="M11265 6012 c-80 -38 -115 -96 -115 -188 0 -69 17 -111 63 -151 95
-83 260 -65 332 36 27 38 30 51 30 116 0 65 -3 78 -30 116 -40 56 -93 83 -175
87 -48 2 -75 -2 -105 -16z"/>
</g>
</svg>
