<?xml version="1.0" standalone="no"?>
<!DOCTYPE svg PUBLIC "-//W3C//DTD SVG 20010904//EN"
 "http://www.w3.org/TR/2001/REC-SVG-20010904/DTD/svg10.dtd">
<svg version="1.0" xmlns="http://www.w3.org/2000/svg"
 width="768.000000pt" height="768.000000pt" viewBox="0 0 768.000000 768.000000"
 preserveAspectRatio="xMidYMid meet">
<metadata>
Created by potrace 1.11, written by Peter Selinger 2001-2013
</metadata>
<g transform="translate(0.000000,768.000000) scale(0.100000,-0.100000)"
fill="#000000" stroke="none">
<path d="M5955 6208 c-5 -16 -945 -4720 -945 -4730 0 -5 126 -8 280 -8 154 0
280 1 280 3 0 4 939 4702 945 4725 l5 22 -280 0 c-216 0 -282 -3 -285 -12z"/>
<path d="M1440 5275 c0 -8 92 -649 205 -1426 113 -777 205 -1418 205 -1425 0
-12 69 -14 393 -14 l392 0 780 1432 c429 787 782 1435 783 1440 2 4 -147 8
-331 8 l-334 0 -568 -1095 c-414 -799 -573 -1095 -584 -1093 -12 3 -37 188
-143 1078 -70 591 -127 1083 -127 1093 -1 16 -24 17 -336 17 -286 0 -335 -2
-335 -15z"/>
<path d="M4555 5268 c-3 -13 -133 -661 -289 -1440 l-283 -1418 303 0 c167 0
304 1 304 3 0 1 128 643 285 1427 157 784 285 1430 285 1437 0 10 -65 13 -300
13 l-300 0 -5 -22z"/>
</g>
</svg>
