<?xml version="1.0" standalone="no"?>
<!DOCTYPE svg PUBLIC "-//W3C//DTD SVG 20010904//EN"
 "http://www.w3.org/TR/2001/REC-SVG-20010904/DTD/svg10.dtd">
<svg version="1.0" xmlns="http://www.w3.org/2000/svg"
 width="2048.000000pt" height="2048.000000pt" viewBox="0 0 2048.000000 2048.000000"
 preserveAspectRatio="xMidYMid meet">
<metadata>
Created by potrace 1.11, written by Peter Selinger 2001-2013
</metadata>
<g transform="translate(0.000000,2048.000000) scale(0.100000,-0.100000)"
fill="#000000" stroke="none">
<path d="M4680 13847 c0 -7 252 -1095 560 -2417 308 -1323 560 -2410 560
-2417 0 -10 -125 -13 -600 -13 l-600 0 0 -2560 0 -2560 6280 0 6280 0 0 2560
0 2560 -1915 0 c-1053 0 -1915 1 -1915 3 0 1 218 1093 485 2427 267 1334 485
2426 485 2427 0 2 -357 3 -794 3 l-793 0 -484 -2421 c-266 -1331 -487 -2425
-490 -2430 -3 -5 -536 -8 -1336 -7 l-1331 3 1534 2424 c844 1333 1534 2425
1534 2427 0 2 -367 4 -815 4 l-814 0 -29 -42 c-16 -24 -707 -1112 -1537 -2418
-829 -1306 -1514 -2381 -1521 -2389 -7 -8 -16 -13 -18 -10 -3 3 -249 1080
-546 2394 -298 1315 -545 2407 -551 2428 l-10 37 -809 0 c-650 0 -810 -3 -810
-13z"/>
</g>
</svg>
